<svg version="1.1" id="Layer_1" xmlns="http://www.w3.org/2000/svg" xmlns:xlink="http://www.w3.org/1999/xlink" x="0px" y="0px"
  width="100%" viewBox="0 0 99 127" enable-background="new 0 0 99 127" xml:space="preserve">
  <path fill="#521D5B" opacity="1" stroke="none" d="
    M56,128 C37.333,128 19.167,128 1,128 C1,85.667 1,43.333 1,1
    C34,1 67,1 100,1 C100,43.333 100,85.667 100,128 C85.5,128 71,128 56,128
    M72.589,10 C65.996,8.501 62.724,11.714 59.984,17.498
    C49.219,40.224 37.996,62.734 26.955,85.33 C21.57,96.351 16.211,107.386 10.557,118.998
    C19.096,118.998 26.893,119.139 34.674,118.862 C35.989,118.815 37.736,117.233 38.437,115.912
    C42.24,108.748 45.777,101.444 49.593,93.814 C63.206,93.814 76.965,93.814 90.68,93.814
    C90.68,85.349 90.68,77.285 90.68,68.809 C80.98,68.809 71.595,68.809 61.658,68.809
    C71.31,48.981 80.688,29.714 90.284,10 C84.216,10 78.891,10 72.589,10 Z"/>
  <path fill="#FFFFFF" opacity="1" stroke="none" d="
    M73.077,10 C78.891,10 84.216,10 90.284,10 C80.688,29.714 71.31,48.981 61.658,68.809
    C71.595,68.809 80.98,68.809 90.68,68.809 C90.68,77.285 90.68,85.349 90.68,93.814
    C76.965,93.814 63.206,93.814 49.593,93.814 C45.777,101.444 42.24,108.748 38.437,115.912
    C37.736,117.233 35.989,118.815 34.674,118.862 C26.893,119.139 19.096,118.998 10.557,118.998
    C16.211,107.386 21.57,96.351 26.955,85.33 C37.996,62.734 49.219,40.224 59.984,17.498
    C62.724,11.714 65.996,8.501 73.077,10 Z"/>
</svg>
